HIERARCHY
ROOT Hips
{
    OFFSET 0.0 0.0 0.0
    CHANNELS 6 Xposition Yposition Zposition Zrotation Xrotation Yrotation
    JOINT LeftHipJoint
    {
        OFFSET 0.1 0.0 0.0
        CHANNELS 3 Zrotation Xrotation Yrotation
        JOINT LeftUpLeg
        {
            OFFSET 126.69668443284203 0.0 0.0
            CHANNELS 3 Zrotation Xrotation Yrotation
            JOINT LeftLeg
            {
                OFFSET 0.0 0.0 -405.3788363514193
                CHANNELS 3 Zrotation Xrotation Yrotation
                JOINT LeftFoot
                {
                    OFFSET 0.0 0.0 -402.145864469314
                    CHANNELS 3 Zrotation Xrotation Yrotation
                    End Site
                    {
                        OFFSET 0.0 -0.1 0.0
                    }
                }
            }
        }
    }
    JOINT LowerBack
    {
        OFFSET 0.0 0.0 0.1
        CHANNELS 3 Zrotation Xrotation Yrotation
        JOINT Spine
        {
            OFFSET 0.0 0.0 226.35942868753438
            CHANNELS 3 Zrotation Xrotation Yrotation
            JOINT Spine1
            {
                OFFSET 0.0 0.0 251.55984050596942
                CHANNELS 3 Zrotation Xrotation Yrotation
                JOINT LeftShoulder
                {
                    OFFSET 0.1 0.0 0.0
                    CHANNELS 3 Zrotation Xrotation Yrotation
                    JOINT LeftArm
                    {
                        OFFSET 141.4915324658019 0.0 0.0
                        CHANNELS 3 Zrotation Xrotation Yrotation
                        JOINT LeftForeArm
                        {
                            OFFSET 271.11420943564895 0.0 0.0
                            CHANNELS 3 Zrotation Xrotation Yrotation
                            JOINT LeftHand
                            {
                                OFFSET 239.4754736273838 0.0 0.0
                                CHANNELS 3 Zrotation Xrotation Yrotation
                                End Site
                                {
                                    OFFSET 0.1 0.0 0.0
                                }
                            }
                        }
                    }
                }
                JOINT Neck
                {
                    OFFSET 0.0 0.0 0.1
                    CHANNELS 3 Zrotation Xrotation Yrotation
                    JOINT Neck1
                    {
                        OFFSET 0.0 0.0 104.5527078309095
                        CHANNELS 3 Zrotation Xrotation Yrotation
                        End Site
                        {
                            OFFSET 0.0 0.0 111.01380858376669
                        }
                    }
                }
                JOINT RightShoulder
                {
                    OFFSET -0.1 0.0 0.0
                    CHANNELS 3 Zrotation Xrotation Yrotation
                    JOINT RightArm
                    {
                        OFFSET -141.4915324658019 0.0 0.0
                        CHANNELS 3 Zrotation Xrotation Yrotation
                        JOINT RightForeArm
                        {
                            OFFSET -271.11420943564895 0.0 0.0
                            CHANNELS 3 Zrotation Xrotation Yrotation
                            JOINT RightHand
                            {
                                OFFSET -239.4754736273838 0.0 0.0
                                CHANNELS 3 Zrotation Xrotation Yrotation
                                End Site
                                {
                                    OFFSET -0.1 0.0 0.0
                                }
                            }
                        }
                    }
                }
            }
        }
    }
    JOINT RightHipJoint
    {
        OFFSET -0.1 0.0 0.0
        CHANNELS 3 Zrotation Xrotation Yrotation
        JOINT RightUpLeg
        {
            OFFSET -126.69668443284203 0.0 0.0
            CHANNELS 3 Zrotation Xrotation Yrotation
            JOINT RightLeg
            {
                OFFSET 0.0 0.0 -405.3788363514193
                CHANNELS 3 Zrotation Xrotation Yrotation
                JOINT RightFoot
                {
                    OFFSET 0.0 0.0 -402.145864469314
                    CHANNELS 3 Zrotation Xrotation Yrotation
                    End Site
                    {
                        OFFSET 0.0 -0.1 0.0
                    }
                }
            }
        }
    }
}
MOTION
Frames: 11
Frame Time: 0.03333333333333333
0.0 0.0 801.2798519177337 26.423963961545734 9.980524610696587 4.74556425260558 0.0 0.0 3.975693351829396e-16 -0.2028953602479374 -32.47053858035949 -0.6881610668446955 -0.17050169342925128 29.006290927321906 3.977302659157798 0.0 0.0 5.963540027744094e-16 0.0 0.0 3.975693351829396e-16 0.01735873008285355 3.073729251077539 2.677950292832946 0.30264849150023393 -1.986789721197888e-15 4.0281805690080266e-16 0.0 0.0 3.975693351829396e-16 -28.44732605120753 15.877837626476055 68.48839173245344 -32.15455407954562 1.114327234857758e-15 -9.60888180643901e-15 -1.5902773407317582e-15 1.5902773407317582e-15 -6.957463365701442e-16 0.0 0.0 3.975693351829396e-16 -7.601387262549645 12.753381851652094 -16.34461615774415 0.0 0.0 3.975693351829396e-16 11.265627450147548 -48.624065535700986 -33.32571819598274 136.0660451857929 -3.5197764873766234e-15 -8.2788041487371e-15 0.0 0.0 0.0 0.0 0.0 3.975693351829396e-16 -0.1769170105811364 -28.334187204575564 -4.053977823988398 -2.3333707951989586 32.304292908764936 1.3189823302362682 0.0 0.0 7.951386703658792e-16
0.0 0.0 801.2798519177337 26.377624214083585 9.967375447524308 4.810278670643722 0.0 0.0 0.0 -0.28802507980754344 -32.54260169787459 -0.8025254411854992 -0.14644013325828245 28.984262365248423 4.007947205872737 0.0 0.0 -3.975693351829396e-16 0.0 0.0 0.0 0.02423607671379629 3.0436979321874476 2.567159027508147 0.30633693974599063 1.195892199194541e-15 1.189515288218746e-15 0.0 0.0 7.951386703658792e-16 -28.10410293713237 15.785316077778793 68.42935783304529 -32.278549653987305 1.4688389496385883e-15 1.7808045715945075e-14 0.0 0.0 7.454425034680117e-17 0.0 0.0 7.951386703658792e-16 -7.562678924828572 12.69582841202907 -16.303973918852243 0.0 0.0 7.951386703658792e-16 11.042007225664754 -48.87416786888823 -33.46198859727709 136.0724408424358 -4.090765529605319e-15 -1.5367623089673963e-14 0.0 0.0 0.0 0.0 0.0 0.0 -0.24934334466366698 -28.4260445046638 -4.189645765785417 -2.326910648002091 32.34095475016075 1.4755074639852124 0.0 0.0 0.0
0.0 0.0 801.2798519177337 26.25055041374738 10.087283659756842 4.80893722876837 0.0 0.0 7.951386703658792e-16 -0.28926119106641235 -32.6626923167746 -0.8273480817062413 -0.16007906933852692 29.006412840345728 4.0817544043216705 0.0 0.0 0.0 0.0 0.0 7.951386703658792e-16 0.0244147051877291 3.0674118699788244 2.563713827299519 0.30031199670591435 1.1916619943503239e-15 -4.0069371594655043e-16 -3.1805546814635176e-15 -3.975693351829397e-16 -1.1034765745125397e-32 -27.891905104831036 15.508898044276988 68.33201916896442 -32.30414734922265 -4.845471434499748e-15 1.1013883386340894e-14 0.0 0.0 -1.2734642767578535e-15 -3.1805546814635176e-15 -3.975693351829397e-16 -1.1034765745125397e-32 -7.482420699952999 12.53002332890887 -16.29213547929427 -3.1805546814635176e-15 -3.975693351829397e-16 -1.1034765745125397e-32 11.027456611785265 -49.37845758563055 -33.588485337988935 135.87817536003612 -2.9476906208179796e-15 -1.1945911793250472e-15 0.0 0.0 0.0 0.0 0.0 7.951386703658792e-16 -0.24905322036836183 -28.41064319384073 -4.262387946192563 -2.3500946856895486 32.0863348784008 1.611552036060247 0.0 0.0 3.975693351829396e-16
0.0 0.0 801.2798519177337 26.208720919706334 10.010629860898902 4.818467433052615 0.0 0.0 -3.975693351829396e-16 -0.30385209988318146 -32.52237478788466 -0.8758927282848461 -0.1697167381981101 28.85400803316523 4.115946959031635 0.0 0.0 -5.963540027744094e-16 0.0 0.0 -3.975693351829396e-16 0.02613408381223955 3.1100451901426105 2.6015482840186226 0.2025291277644395 1.1913008153181722e-15 -7.972454195752509e-16 0.0 0.0 0.0 -27.81933698214158 15.38614654268093 68.23564726665414 -32.25317462335878 -2.411132840854574e-15 2.6136848559030444e-15 0.0 0.0 -8.075627120903461e-16 0.0 0.0 0.0 -7.514810402231269 12.67936603695543 -16.15662166856333 0.0 0.0 0.0 10.676729518585184 -49.493909770879725 -34.02964296638257 135.8576698238482 -3.5047163492636032e-15 -8.285190882860837e-15 0.0 0.0 0.0 0.0 0.0 -3.975693351829396e-16 -0.2611558125700444 -28.258131259930135 -4.368970672193405 -2.3874760449890235 31.956409781333196 1.7519838731655577 0.0 0.0 3.975693351829396e-16
0.0 0.0 801.2798519177337 26.093349888559572 10.02779826618066 4.828346536935204 0.0 0.0 -3.975693351829396e-16 -0.28147470309081524 -32.458178407063485 -0.8819543558574714 -0.19512274967097606 28.810859501892345 4.130683113624956 -6.896728590703373e-33 -3.9756933518293955e-16 -1.9878466759146976e-15 0.0 0.0 -3.975693351829396e-16 0.024067190906982082 3.0817244835335753 2.6341876730761293 0.15267122129335212 7.956676492096174e-16 3.9650961323814615e-16 0.0 0.0 7.951386703658792e-16 -27.770395649895953 15.286358742031172 68.18291751778065 -32.20631680277836 -1.369791109890331e-15 -1.8189086546059534e-14 0.0 0.0 -2.6929110437781925e-15 0.0 0.0 7.951386703658792e-16 -7.523110889818524 12.826730516025805 -16.076480599778186 0.0 0.0 7.951386703658792e-16 10.400661559379165 -49.713440287941715 -34.52560027121633 135.82973754051926 1.836162838083058e-15 -1.298457867711903e-14 7.951386703658791e-16 -7.951386703658791e-16 5.517382872562698e-33 0.0 0.0 -3.975693351829396e-16 -0.24220256377142144 -28.187034188758545 -4.404401723823827 -2.428929320785315 31.901991526418477 1.7138011349336395 0.0 0.0 -3.975693351829396e-16
0.0 0.0 801.2798519177337 26.009179168681513 10.16702865281727 4.858587550973773 0.0 0.0 -7.951386703658792e-16 -0.2792716206490855 -32.621150342356636 -0.9597662148525633 -0.24165529469850874 28.81673350281404 4.216781639599949 2.758691436281349e-33 -7.951386703658791e-16 3.9756933518293955e-16 0.0 0.0 -7.951386703658792e-16 0.02310212994945219 3.0016206809671693 2.60926857977507 0.14509962050007033 -1.192707049387044e-15 1.5102459046462137e-18 0.0 0.0 7.951386703658792e-16 -27.805673929199653 15.109393273885376 68.1312683683433 -32.088650555221214 -2.1876166140004123e-15 1.8529773653758465e-15 0.0 0.0 -2.270493625146319e-15 0.0 0.0 7.951386703658792e-16 -7.5747655291011045 12.88659173124612 -16.02195651738288 0.0 0.0 7.951386703658792e-16 9.985792803414657 -50.21298749656353 -34.98016076060667 135.77776043265095 2.3943474780874738e-15 -5.89328537246366e-15 0.0 0.0 0.0 0.0 0.0 -7.951386703658792e-16 -0.24052947383745876 -28.38059842073311 -4.454715005212835 -2.4736625273375363 31.99794801238597 1.7759472761926862 0.0 0.0 -3.975693351829396e-16
0.0 0.0 801.2798519177337 25.925756622858373 10.26768337328534 4.834560363283096 0.0 0.0 -7.951386703658792e-16 -0.2511672830107099 -32.765053535010594 -0.9465626614692715 -0.2639356533326791 28.798741898111754 4.313038696455218 0.0 -3.975693351829396e-16 0.0 0.0 0.0 -7.951386703658792e-16 0.0203755939386491 2.957410524966202 2.6366490634000406 0.17579779212811963 7.945278137959314e-16 -3.9878870908499945e-16 0.0 0.0 0.0 -27.788099448919397 15.040304040758894 68.07911594128898 -32.08462847524697 3.4918517347870205e-16 -1.2723638646211718e-14 -1.5902773407317584e-15 2.801795989973245e-32 -2.018906780225865e-15 0.0 0.0 0.0 -7.629915064167208 12.980895553218712 -16.058661069155285 0.0 0.0 0.0 9.420965564453576 -50.823688633215994 -35.51952575656222 135.61095618458347 -9.376664186118e-15 -1.0695640718365684e-14 0.0 0.0 0.0 0.0 0.0 -7.951386703658792e-16 -0.21710393979198533 -28.55727816221027 -4.46150132082945 -2.5054160686345757 31.94636790462722 1.8042204235469084 0.0 0.0 -3.975693351829396e-16
0.0 0.0 801.2798519177337 25.95407797763718 10.467318599110447 4.803802480286388 0.0 0.0 3.975693351829395e-16 -0.22724694674467527 -32.989299661021256 -0.8855705894643148 -0.25412119288412843 28.606356611679473 4.301015845410495 2.069018577211012e-33 -1.1927080055488188e-15 1.987846675914698e-16 0.0 0.0 3.975693351829395e-16 0.01869996469264435 3.0228176383953653 2.6246694304625353 0.18837956146521848 2.3847592152292223e-15 -4.014902335774452e-16 0.0 0.0 -1.1927080055488188e-15 -27.992374166014525 14.81634124659005 67.95091751439956 -32.14134720125287 5.270044238508746e-15 -1.254888707104131e-14 -2.396613185269422e-32 1.5902773407317588e-15 1.7269417997008942e-15 0.0 0.0 -1.1927080055488188e-15 -7.677284490022563 12.726393351916748 -16.006475570780243 0.0 0.0 -1.1927080055488188e-15 9.280370727244609 -51.448952964226514 -35.69997518844117 135.27182442807285 -5.209846667871201e-16 -7.092828447514445e-15 0.0 0.0 0.0 0.0 0.0 3.975693351829395e-16 -0.19706792354960326 -28.797138372966252 -4.499694260862387 -2.5480245670235906 31.850429364054033 1.9858946787161 -3.1805546814635168e-15 3.310429723537619e-32 -1.1927080055488188e-15
0.0 0.0 801.2798519177337 25.9222043848635 10.432974457832547 4.799135037123719 0.0 0.0 -3.975693351829396e-16 -0.21854606957464692 -32.867343782674524 -0.9009077827748152 -0.2679065530818329 28.380847935688145 4.369896868203953 0.0 0.0 1.987846675914698e-16 0.0 0.0 -3.975693351829396e-16 0.018440484074749332 3.082878569618471 2.634026581027718 0.21837119401449723 -1.196493973967515e-15 -1.98557018604349e-15 -3.1805546814635168e-15 -1.1034765745125397e-32 3.975693351829396e-16 -27.944610263611786 14.730475463524492 67.9199387959493 -32.09537362149746 -4.255213019075487e-15 -2.4650664763439104e-15 0.0 0.0 -8.852129728682639e-16 -3.1805546814635168e-15 -1.1034765745125397e-32 3.975693351829396e-16 -7.777701465625026 12.80938148969359 -15.974249540437615 -3.1805546814635168e-15 -1.1034765745125397e-32 3.975693351829396e-16 8.884715997327747 -51.66316260225087 -36.175751821731936 135.1842795715325 -3.455968701386511e-15 -8.305642960618568e-15 0.0 0.0 0.0 0.0 0.0 -3.975693351829396e-16 -0.18995773361527188 -28.705276674524644 -4.5294326743852835 -2.553435987693032 31.63321498121621 2.0091021864117793 0.0 0.0 0.0
0.0 0.0 801.2798519177337 25.81610183514786 10.499245737420626 4.822272460524798 0.0 0.0 3.975693351829396e-16 -0.21765469214052485 -32.86011490167661 -0.953100717251044 -0.29577981167679385 28.28323830986645 4.417434960330712 0.0 0.0 3.975693351829396e-16 0.0 0.0 3.975693351829396e-16 0.01826115475727648 3.0649030193160853 2.5874068238780827 0.2013263311149078 -4.0525211892381474e-16 -4.372557446849603e-15 0.0 0.0 3.975693351829396e-16 -27.976197921309257 14.538230166247565 67.92751842733557 -31.903985168258227 -1.6383041443253037e-15 -5.479897270216336e-17 0.0 0.0 -3.136682284123993e-15 0.0 0.0 3.975693351829396e-16 -7.819919701153823 12.751716446447567 -15.927448208922236 0.0 0.0 3.975693351829396e-16 8.538072299132336 -51.93051731071586 -36.60365455224729 135.0017680886949 1.4256651569059706e-15 -2.0065009397744226e-14 0.0 0.0 0.0 0.0 0.0 3.975693351829396e-16 -0.19013752022330124 -28.826597139082843 -4.551063515579539 -2.553325321228904 31.491806702135584 2.015177465246217 0.0 0.0 -3.975693351829396e-16
0.0 0.0 801.2798519177337 25.724246507402047 10.59648518323343 4.799485535232473 0.0 0.0 7.95138670365879e-16 -0.22148214979730815 -33.05937923301671 -0.9670485122880982 -0.30343438066683 28.50299377625378 4.496560355560536 -1.2414111463266072e-32 -7.951386703658792e-16 -1.7890620083232284e-15 0.0 0.0 7.95138670365879e-16 0.01825414811309877 3.0341512570542566 2.5655536653742805 0.22743997770902558 -7.911916520913561e-16 1.989420941308622e-15 0.0 0.0 3.975693351829396e-16 -27.990859420849606 14.37695366329747 67.92942154461724 -31.719958331861807 2.259311690670429e-16 5.0238207881345375e-15 0.0 0.0 8.89871988514939e-16 0.0 0.0 3.975693351829396e-16 -7.7906749623238785 12.634392811915323 -15.94484759841707 0.0 0.0 3.975693351829396e-16 8.490976573922346 -52.09459753248422 -36.7538736823523 134.92791447267876 2.937683127321274e-15 1.2189938167322214e-15 0.0 0.0 0.0 0.0 0.0 7.95138670365879e-16 -0.19419024266718468 -29.105761333888367 -4.520780828970812 -2.551787653139869 31.694271631499284 1.989002926262197 0.0 0.0 -1.1927080055488186e-15
